<svg xmlns="http://www.w3.org/2000/svg" version="1.1" xmlns:xlink="http://www.w3.org/1999/xlink" xmlns:svgjs="http://svgjs.dev/svgjs" width="1000" height="252" viewBox="0 0 1000 252"><g transform="matrix(1,0,0,1,-0.6060606060606233,-0.4512075623558047)"><svg viewBox="0 0 396 100" data-background-color="#ffffff" preserveAspectRatio="xMidYMid meet" height="252" width="1000" xmlns="http://www.w3.org/2000/svg" xmlns:xlink="http://www.w3.org/1999/xlink"><g id="tight-bounds" transform="matrix(1,0,0,1,0.2400000000000091,0.17905061998246197)"><svg viewBox="0 0 395.52 99.64189876003509" height="99.64189876003509" width="395.52"><g><svg viewBox="0 0 474.2439408622406 119.47453161143672" height="99.64189876003509" width="395.52"><g transform="matrix(1,0,0,1,78.72394086224064,16.512037292173964)"><svg viewBox="0 0 395.52 86.45045702708879" height="86.45045702708879" width="395.52"><g><svg viewBox="0 0 395.52 86.45045702708879" height="86.45045702708879" width="395.52"><g><svg viewBox="0 0 395.52 53.32853932584269" height="53.32853932584269" width="395.52"><g transform="matrix(1,0,0,1,0,0)"><svg width="395.52" viewBox="3 -35.5 266.98 36" height="53.32853932584269" data-palette-color="#755bb4"><path d="M16.95 0.5L16.95 0.5Q12.65 0.5 9.6-0.98 6.55-2.45 4.9-5.53 3.25-8.6 3.05-13.25L3.05-13.25Q3-15.45 3-17.48 3-19.5 3.05-21.7L3.05-21.7Q3.25-26.3 4.98-29.38 6.7-32.45 9.78-33.98 12.85-35.5 16.95-35.5L16.95-35.5Q21-35.5 24.08-33.98 27.15-32.45 28.9-29.38 30.65-26.3 30.8-21.7L30.8-21.7Q30.9-19.5 30.9-17.48 30.9-15.45 30.8-13.25L30.8-13.25Q30.65-8.6 28.98-5.53 27.3-2.45 24.25-0.98 21.2 0.5 16.95 0.5ZM16.95-3.75L16.95-3.75Q20.75-3.75 23.18-6.05 25.6-8.35 25.8-13.5L25.8-13.5Q25.9-15.75 25.9-17.53 25.9-19.3 25.8-21.5L25.8-21.5Q25.7-24.95 24.53-27.1 23.35-29.25 21.4-30.25 19.45-31.25 16.95-31.25L16.95-31.25Q14.45-31.25 12.5-30.25 10.55-29.25 9.38-27.1 8.2-24.95 8.05-21.5L8.05-21.5Q8-19.3 8-17.53 8-15.75 8.05-13.5L8.05-13.5Q8.25-8.35 10.7-6.05 13.15-3.75 16.95-3.75ZM41.9 0L39.35 0Q38.8 0 38.5-0.33 38.2-0.65 38.2-1.15L38.2-1.15 38.2-33.8Q38.2-34.35 38.5-34.68 38.8-35 39.35-35L39.35-35 51.55-35Q57.2-35 60.5-32.35 63.8-29.7 63.8-24.5L63.8-24.5Q63.8-20.65 61.87-18.23 59.95-15.8 56.65-14.85L56.65-14.85 64.35-1.55Q64.5-1.25 64.5-1L64.5-1Q64.5-0.6 64.17-0.3 63.85 0 63.45 0L63.45 0 61.05 0Q60.2 0 59.8-0.45 59.4-0.9 59.1-1.35L59.1-1.35 51.85-14.05 43.1-14.05 43.1-1.15Q43.1-0.65 42.77-0.33 42.45 0 41.9 0L41.9 0ZM43.1-30.8L43.1-18.3 51.35-18.3Q55.1-18.3 56.95-19.88 58.8-21.45 58.8-24.55L58.8-24.55Q58.8-27.6 56.97-29.2 55.15-30.8 51.35-30.8L51.35-30.8 43.1-30.8ZM74.75 0L72.09 0Q71.55 0 71.25-0.33 70.94-0.65 70.94-1.15L70.94-1.15 70.94-33.85Q70.94-34.35 71.25-34.68 71.55-35 72.09-35L72.09-35 74.75-35Q75.3-35 75.59-34.68 75.89-34.35 75.89-33.85L75.89-33.85 75.89-1.15Q75.89-0.65 75.59-0.33 75.3 0 74.75 0L74.75 0ZM97.19 0.5L97.19 0.5Q92.89 0.5 89.84-0.98 86.79-2.45 85.14-5.53 83.49-8.6 83.29-13.25L83.29-13.25Q83.24-15.45 83.24-17.48 83.24-19.5 83.29-21.7L83.29-21.7Q83.49-26.3 85.22-29.38 86.94-32.45 90.02-33.98 93.09-35.5 97.19-35.5L97.19-35.5Q101.24-35.5 104.32-33.98 107.39-32.45 109.14-29.38 110.89-26.3 111.04-21.7L111.04-21.7Q111.14-19.5 111.14-17.48 111.14-15.45 111.04-13.25L111.04-13.25Q110.89-8.6 109.22-5.53 107.54-2.45 104.49-0.98 101.44 0.5 97.19 0.5ZM97.19-3.75L97.19-3.75Q100.99-3.75 103.42-6.05 105.84-8.35 106.04-13.5L106.04-13.5Q106.14-15.75 106.14-17.53 106.14-19.3 106.04-21.5L106.04-21.5Q105.94-24.95 104.77-27.1 103.59-29.25 101.64-30.25 99.69-31.25 97.19-31.25L97.19-31.25Q94.69-31.25 92.74-30.25 90.79-29.25 89.62-27.1 88.44-24.95 88.29-21.5L88.29-21.5Q88.24-19.3 88.24-17.53 88.24-15.75 88.29-13.5L88.29-13.5Q88.49-8.35 90.94-6.05 93.39-3.75 97.19-3.75ZM121.99 0L119.59 0Q119.04 0 118.74-0.33 118.44-0.65 118.44-1.15L118.44-1.15 118.44-33.8Q118.44-34.35 118.74-34.68 119.04-35 119.59-35L119.59-35 121.89-35Q122.49-35 122.79-34.73 123.09-34.45 123.14-34.3L123.14-34.3 139.74-8.8 139.74-33.8Q139.74-34.35 140.04-34.68 140.34-35 140.89-35L140.89-35 143.29-35Q143.84-35 144.17-34.68 144.49-34.35 144.49-33.8L144.49-33.8 144.49-1.2Q144.49-0.7 144.17-0.35 143.84 0 143.34 0L143.34 0 140.94 0Q140.39 0 140.12-0.3 139.84-0.6 139.74-0.7L139.74-0.7 123.19-25.95 123.19-1.15Q123.19-0.65 122.87-0.33 122.54 0 121.99 0L121.99 0ZM186.99 0L166.59 0Q166.03 0 165.74-0.33 165.44-0.65 165.44-1.15L165.44-1.15 165.44-33.85Q165.44-34.35 165.74-34.68 166.03-35 166.59-35L166.59-35 169.24-35Q169.74-35 170.06-34.68 170.39-34.35 170.39-33.85L170.39-33.85 170.39-4.35 186.99-4.35Q187.54-4.35 187.86-4.03 188.19-3.7 188.19-3.15L188.19-3.15 188.19-1.15Q188.19-0.65 187.86-0.33 187.54 0 186.99 0L186.99 0ZM200.18 0.5L200.18 0.5Q197.68 0.5 195.63-0.5 193.58-1.5 192.33-3.2 191.08-4.9 191.08-7.05L191.08-7.05Q191.08-10.5 193.88-12.55 196.68-14.6 201.18-15.25L201.18-15.25 208.63-16.3 208.63-17.75Q208.63-20.15 207.26-21.5 205.88-22.85 202.78-22.85L202.78-22.85Q200.58-22.85 199.18-21.95 197.78-21.05 197.23-19.65L197.23-19.65Q196.93-18.9 196.18-18.9L196.18-18.9 193.93-18.9Q193.38-18.9 193.11-19.23 192.83-19.55 192.83-20L192.83-20Q192.83-20.75 193.41-21.85 193.98-22.95 195.18-24 196.38-25.05 198.26-25.78 200.13-26.5 202.83-26.5L202.83-26.5Q205.83-26.5 207.88-25.73 209.93-24.95 211.11-23.65 212.28-22.35 212.81-20.7 213.33-19.05 213.33-17.35L213.33-17.35 213.33-1.15Q213.33-0.65 213.01-0.33 212.68 0 212.18 0L212.18 0 209.88 0Q209.33 0 209.03-0.33 208.73-0.65 208.73-1.15L208.73-1.15 208.73-3.3Q208.08-2.4 206.98-1.53 205.88-0.65 204.23-0.08 202.58 0.5 200.18 0.5ZM201.23-3.25L201.23-3.25Q203.28-3.25 204.98-4.13 206.68-5 207.66-6.85 208.63-8.7 208.63-11.5L208.63-11.5 208.63-12.9 202.83-12.05Q199.28-11.55 197.48-10.38 195.68-9.2 195.68-7.4L195.68-7.4Q195.68-6 196.51-5.08 197.33-4.15 198.61-3.7 199.88-3.25 201.23-3.25ZM233.38 0.5L233.38 0.5Q230.38 0.5 228.38-0.58 226.38-1.65 225.18-3.25L225.18-3.25 225.18-1.15Q225.18-0.65 224.86-0.33 224.53 0 224.03 0L224.03 0 221.73 0Q221.23 0 220.91-0.33 220.58-0.65 220.58-1.15L220.58-1.15 220.58-34.35Q220.58-34.85 220.91-35.18 221.23-35.5 221.73-35.5L221.73-35.5 224.18-35.5Q224.68-35.5 224.98-35.18 225.28-34.85 225.28-34.35L225.28-34.35 225.28-22.85Q226.53-24.4 228.51-25.45 230.48-26.5 233.38-26.5L233.38-26.5Q236.18-26.5 238.16-25.53 240.13-24.55 241.41-22.85 242.68-21.15 243.33-19 243.98-16.85 244.08-14.5L244.08-14.5Q244.13-13.7 244.13-13 244.13-12.3 244.08-11.5L244.08-11.5Q243.98-9.1 243.33-6.95 242.68-4.8 241.41-3.13 240.13-1.45 238.16-0.48 236.18 0.5 233.38 0.5ZM232.33-3.55L232.33-3.55Q234.93-3.55 236.41-4.67 237.88-5.8 238.53-7.63 239.18-9.45 239.28-11.55L239.28-11.55Q239.33-13 239.28-14.45L239.28-14.45Q239.18-16.55 238.53-18.38 237.88-20.2 236.41-21.33 234.93-22.45 232.33-22.45L232.33-22.45Q229.98-22.45 228.43-21.35 226.88-20.25 226.11-18.55 225.33-16.85 225.28-15.1L225.28-15.1Q225.23-14.3 225.23-13.18 225.23-12.05 225.28-11.25L225.28-11.25Q225.38-9.4 226.11-7.63 226.83-5.85 228.36-4.7 229.88-3.55 232.33-3.55ZM259.28 0.5L259.28 0.5Q256.48 0.5 254.48-0.2 252.48-0.9 251.23-1.9 249.98-2.9 249.35-3.9 248.73-4.9 248.68-5.5L248.68-5.5Q248.63-6.05 249.03-6.35 249.43-6.65 249.83-6.65L249.83-6.65 252.08-6.65Q252.33-6.65 252.5-6.58 252.68-6.5 252.98-6.15L252.98-6.15Q253.63-5.45 254.43-4.75 255.23-4.05 256.4-3.6 257.58-3.15 259.33-3.15L259.33-3.15Q261.88-3.15 263.53-4.13 265.18-5.1 265.18-7L265.18-7Q265.18-8.25 264.5-9 263.83-9.75 262.1-10.35 260.38-10.95 257.38-11.6L257.38-11.6Q254.38-12.3 252.63-13.33 250.88-14.35 250.13-15.78 249.38-17.2 249.38-19L249.38-19Q249.38-20.85 250.48-22.58 251.58-24.3 253.7-25.4 255.83-26.5 259.03-26.5L259.03-26.5Q261.63-26.5 263.48-25.85 265.33-25.2 266.53-24.23 267.73-23.25 268.33-22.3 268.93-21.35 268.98-20.7L268.98-20.7Q269.03-20.2 268.68-19.88 268.33-19.55 267.88-19.55L267.88-19.55 265.78-19.55Q265.43-19.55 265.2-19.7 264.98-19.85 264.78-20.05L264.78-20.05Q264.28-20.7 263.6-21.35 262.93-22 261.85-22.43 260.78-22.85 259.03-22.85L259.03-22.85Q256.53-22.85 255.28-21.8 254.03-20.75 254.03-19.15L254.03-19.15Q254.03-18.2 254.58-17.45 255.13-16.7 256.68-16.1 258.23-15.5 261.28-14.8L261.28-14.8Q264.58-14.15 266.48-13.05 268.38-11.95 269.18-10.5 269.98-9.05 269.98-7.15L269.98-7.15Q269.98-5.05 268.78-3.3 267.58-1.55 265.18-0.53 262.78 0.5 259.28 0.5Z" opacity="1" transform="matrix(1,0,0,1,0,0)" fill="#755bb4" class="undefined-text-0" data-fill-palette-color="primary" id="text-0"></path></svg></g></svg></g><g transform="matrix(1,0,0,1,0,65.91812757573032)"><svg viewBox="0 0 232.209792 20.532329451358454" height="20.532329451358454" width="232.209792"><g transform="matrix(1,0,0,1,0,0)"><svg width="232.209792" viewBox="4.35 -35.9 513.4 45.4" height="20.532329451358454" data-palette-color="#755bb4"><path d="M7.9 0L5.5 0Q4.95 0 4.65-0.33 4.35-0.65 4.35-1.15L4.35-1.15 4.35-33.8Q4.35-34.35 4.65-34.68 4.95-35 5.5-35L5.5-35 7.8-35Q8.4-35 8.7-34.73 9-34.45 9.05-34.3L9.05-34.3 25.65-8.8 25.65-33.8Q25.65-34.35 25.95-34.68 26.25-35 26.8-35L26.8-35 29.2-35Q29.75-35 30.08-34.68 30.4-34.35 30.4-33.8L30.4-33.8 30.4-1.2Q30.4-0.7 30.08-0.35 29.75 0 29.25 0L29.25 0 26.85 0Q26.3 0 26.03-0.3 25.75-0.6 25.65-0.7L25.65-0.7 9.1-25.95 9.1-1.15Q9.1-0.65 8.78-0.33 8.45 0 7.9 0L7.9 0ZM48.85 0.5L48.85 0.5Q43.65 0.5 40.6-2.68 37.55-5.85 37.25-11.35L37.25-11.35Q37.2-12 37.2-13.03 37.2-14.05 37.25-14.7L37.25-14.7Q37.45-18.25 38.9-20.93 40.35-23.6 42.87-25.05 45.4-26.5 48.8-26.5L48.8-26.5Q52.6-26.5 55.17-24.9 57.75-23.3 59.1-20.35 60.45-17.4 60.45-13.45L60.45-13.45 60.45-12.6Q60.45-12.05 60.12-11.75 59.8-11.45 59.3-11.45L59.3-11.45 42-11.45Q42-11.4 42-11.25 42-11.1 42-11L42-11Q42.1-8.95 42.9-7.18 43.7-5.4 45.22-4.3 46.75-3.2 48.8-3.2L48.8-3.2Q50.6-3.2 51.8-3.75 53-4.3 53.75-4.98 54.5-5.65 54.75-6.05L54.75-6.05Q55.2-6.65 55.45-6.78 55.7-6.9 56.25-6.9L56.25-6.9 58.7-6.9Q59.15-6.9 59.47-6.63 59.8-6.35 59.75-5.85L59.75-5.85Q59.7-5.1 58.95-4.03 58.2-2.95 56.82-1.9 55.45-0.85 53.42-0.18 51.4 0.5 48.85 0.5ZM42-15.05L42-14.9 55.7-14.9 55.7-15.05Q55.7-17.3 54.87-19.05 54.05-20.8 52.5-21.83 50.95-22.85 48.8-22.85L48.8-22.85Q46.65-22.85 45.12-21.83 43.6-20.8 42.8-19.05 42-17.3 42-15.05L42-15.05ZM67.8 0L65.25 0Q64.84 0 64.52-0.3 64.2-0.6 64.2-1.05L64.2-1.05Q64.2-1.2 64.27-1.43 64.34-1.65 64.55-1.95L64.55-1.95 73.25-13.3 65.09-24.05Q64.9-24.35 64.82-24.55 64.75-24.75 64.75-24.95L64.75-24.95Q64.75-25.4 65.05-25.7 65.34-26 65.8-26L65.8-26 68.34-26Q68.9-26 69.2-25.73 69.5-25.45 69.65-25.2L69.65-25.2 76.3-16.55 82.95-25.15Q83.15-25.4 83.42-25.7 83.7-26 84.25-26L84.25-26 86.7-26Q87.15-26 87.45-25.7 87.75-25.4 87.75-24.95L87.75-24.95Q87.75-24.75 87.67-24.55 87.59-24.35 87.4-24.05L87.4-24.05 79.15-13.2 87.84-1.95Q88.05-1.65 88.12-1.45 88.2-1.25 88.2-1.05L88.2-1.05Q88.2-0.6 87.9-0.3 87.59 0 87.15 0L87.15 0 84.5 0Q84 0 83.7-0.25 83.4-0.5 83.2-0.75L83.2-0.75 76.2-9.9 69.09-0.75Q68.9-0.55 68.62-0.28 68.34 0 67.8 0L67.8 0ZM106.99 0L103.54 0Q100.74 0 98.99-1.07 97.24-2.15 96.44-4.13 95.64-6.1 95.64-8.8L95.64-8.8 95.64-22 91.74-22Q91.24-22 90.92-22.33 90.59-22.65 90.59-23.15L90.59-23.15 90.59-24.85Q90.59-25.35 90.92-25.68 91.24-26 91.74-26L91.74-26 95.64-26 95.64-34.35Q95.64-34.85 95.97-35.18 96.29-35.5 96.79-35.5L96.79-35.5 99.14-35.5Q99.64-35.5 99.97-35.18 100.29-34.85 100.29-34.35L100.29-34.35 100.29-26 106.49-26Q107.04-26 107.34-25.68 107.64-25.35 107.64-24.85L107.64-24.85 107.64-23.15Q107.64-22.65 107.34-22.33 107.04-22 106.49-22L106.49-22 100.29-22 100.29-9.15Q100.29-6.8 101.09-5.45 101.89-4.1 103.94-4.1L103.94-4.1 106.99-4.1Q107.49-4.1 107.82-3.78 108.14-3.45 108.14-2.95L108.14-2.95 108.14-1.15Q108.14-0.65 107.82-0.33 107.49 0 106.99 0L106.99 0ZM128.84-12.9L113.84-12.9Q113.34-12.9 113.02-13.23 112.69-13.55 112.69-14.05L112.69-14.05 112.69-15.95Q112.69-16.45 113.02-16.78 113.34-17.1 113.84-17.1L113.84-17.1 128.84-17.1Q129.39-17.1 129.69-16.78 129.99-16.45 129.99-15.95L129.99-15.95 129.99-14.05Q129.99-13.55 129.69-13.23 129.39-12.9 128.84-12.9L128.84-12.9ZM150.54 0.5L150.54 0.5Q146.09 0.5 143.01-1.15 139.94-2.8 138.31-5.8 136.69-8.8 136.49-12.85L136.49-12.85Q136.44-15.05 136.44-17.53 136.44-20 136.49-22.25L136.49-22.25Q136.69-26.3 138.31-29.28 139.94-32.25 143.04-33.88 146.14-35.5 150.54-35.5L150.54-35.5Q154.04-35.5 156.64-34.5 159.24-33.5 160.91-31.98 162.59-30.45 163.41-28.8 164.24-27.15 164.29-25.9L164.29-25.9Q164.34-25.45 164.04-25.18 163.74-24.9 163.24-24.9L163.24-24.9 160.29-24.9Q159.79-24.9 159.56-25.1 159.34-25.3 159.14-25.8L159.14-25.8Q158.69-27.1 157.66-28.35 156.64-29.6 154.91-30.43 153.19-31.25 150.54-31.25L150.54-31.25Q146.54-31.25 144.11-29.1 141.69-26.95 141.49-22L141.49-22Q141.34-17.55 141.49-13.1L141.49-13.1Q141.69-8.1 144.14-5.93 146.59-3.75 150.54-3.75L150.54-3.75Q153.19-3.75 155.26-4.75 157.34-5.75 158.54-7.78 159.74-9.8 159.74-12.95L159.74-12.95 159.74-15.05 152.24-15.05Q151.74-15.05 151.41-15.38 151.09-15.7 151.09-16.25L151.09-16.25 151.09-17.85Q151.09-18.4 151.41-18.73 151.74-19.05 152.24-19.05L152.24-19.05 163.54-19.05Q164.09-19.05 164.39-18.73 164.69-18.4 164.69-17.85L164.69-17.85 164.69-13.05Q164.69-8.95 163.01-5.9 161.34-2.85 158.14-1.18 154.94 0.5 150.54 0.5ZM181.59 0.5L181.59 0.5Q176.39 0.5 173.34-2.68 170.29-5.85 169.99-11.35L169.99-11.35Q169.94-12 169.94-13.03 169.94-14.05 169.99-14.7L169.99-14.7Q170.19-18.25 171.64-20.93 173.09-23.6 175.61-25.05 178.14-26.5 181.54-26.5L181.54-26.5Q185.34-26.5 187.91-24.9 190.49-23.3 191.84-20.35 193.19-17.4 193.19-13.45L193.19-13.45 193.19-12.6Q193.19-12.05 192.86-11.75 192.54-11.45 192.04-11.45L192.04-11.45 174.74-11.45Q174.74-11.4 174.74-11.25 174.74-11.1 174.74-11L174.74-11Q174.84-8.95 175.64-7.18 176.44-5.4 177.96-4.3 179.49-3.2 181.54-3.2L181.54-3.2Q183.34-3.2 184.54-3.75 185.74-4.3 186.49-4.98 187.24-5.65 187.49-6.05L187.49-6.05Q187.94-6.65 188.19-6.78 188.44-6.9 188.99-6.9L188.99-6.9 191.44-6.9Q191.89-6.9 192.21-6.63 192.54-6.35 192.49-5.85L192.49-5.85Q192.44-5.1 191.69-4.03 190.94-2.95 189.56-1.9 188.19-0.85 186.16-0.18 184.14 0.5 181.59 0.5ZM174.74-15.05L174.74-14.9 188.44-14.9 188.44-15.05Q188.44-17.3 187.61-19.05 186.79-20.8 185.24-21.83 183.69-22.85 181.54-22.85L181.54-22.85Q179.39-22.85 177.86-21.83 176.34-20.8 175.54-19.05 174.74-17.3 174.74-15.05L174.74-15.05ZM202.83 0L200.33 0Q199.83 0 199.51-0.33 199.18-0.65 199.18-1.15L199.18-1.15 199.18-24.85Q199.18-25.35 199.51-25.68 199.83-26 200.33-26L200.33-26 202.68-26Q203.18-26 203.51-25.68 203.83-25.35 203.83-24.85L203.83-24.85 203.83-22.65Q205.13-24.35 207.11-25.43 209.08-26.5 212.18-26.5L212.18-26.5Q215.43-26.5 217.71-25.08 219.98-23.65 221.16-21.13 222.33-18.6 222.33-15.25L222.33-15.25 222.33-1.15Q222.33-0.65 222.01-0.33 221.68 0 221.18 0L221.18 0 218.68 0Q218.18 0 217.86-0.33 217.53-0.65 217.53-1.15L217.53-1.15 217.53-15Q217.53-18.5 215.83-20.48 214.13-22.45 210.83-22.45L210.83-22.45Q207.73-22.45 205.86-20.48 203.98-18.5 203.98-15L203.98-15 203.98-1.15Q203.98-0.65 203.66-0.33 203.33 0 202.83 0L202.83 0ZM253.63 0.5L253.63 0.5Q249.28 0.5 246.33-0.85 243.38-2.2 241.8-4.33 240.23-6.45 240.13-8.8L240.13-8.8Q240.13-9.2 240.45-9.53 240.78-9.85 241.23-9.85L241.23-9.85 243.78-9.85Q244.38-9.85 244.68-9.55 244.98-9.25 245.08-8.85L245.08-8.85Q245.38-7.65 246.33-6.48 247.28-5.3 249.05-4.53 250.83-3.75 253.63-3.75L253.63-3.75Q257.93-3.75 259.95-5.28 261.98-6.8 261.98-9.35L261.98-9.35Q261.98-11.1 260.9-12.18 259.83-13.25 257.63-14.1 255.43-14.95 251.93-15.95L251.93-15.95Q248.28-17 245.88-18.25 243.48-19.5 242.3-21.35 241.13-23.2 241.13-26.05L241.13-26.05Q241.13-28.75 242.58-30.88 244.03-33 246.78-34.25 249.53-35.5 253.38-35.5L253.38-35.5Q256.48-35.5 258.8-34.68 261.13-33.85 262.68-32.48 264.23-31.1 265.03-29.53 265.83-27.95 265.88-26.45L265.88-26.45Q265.88-26.1 265.63-25.78 265.38-25.45 264.83-25.45L264.83-25.45 262.18-25.45Q261.83-25.45 261.45-25.65 261.08-25.85 260.88-26.4L260.88-26.4Q260.58-28.45 258.58-29.85 256.58-31.25 253.38-31.25L253.38-31.25Q250.13-31.25 248.1-30 246.08-28.75 246.08-26.1L246.08-26.1Q246.08-24.4 247.03-23.28 247.98-22.15 250.03-21.3 252.08-20.45 255.38-19.5L255.38-19.5Q259.38-18.4 261.93-17.18 264.48-15.95 265.7-14.13 266.93-12.3 266.93-9.45L266.93-9.45Q266.93-6.3 265.28-4.08 263.63-1.85 260.65-0.68 257.68 0.5 253.63 0.5ZM276.38 0L273.98 0Q273.48 0 273.15-0.33 272.83-0.65 272.83-1.15L272.83-1.15 272.83-24.85Q272.83-25.35 273.15-25.68 273.48-26 273.98-26L273.98-26 276.38-26Q276.88-26 277.2-25.68 277.53-25.35 277.53-24.85L277.53-24.85 277.53-1.15Q277.53-0.65 277.2-0.33 276.88 0 276.38 0L276.38 0ZM276.73-30.85L273.58-30.85Q273.08-30.85 272.75-31.18 272.43-31.5 272.43-32L272.43-32 272.43-34.7Q272.43-35.2 272.75-35.55 273.08-35.9 273.58-35.9L273.58-35.9 276.73-35.9Q277.23-35.9 277.58-35.55 277.93-35.2 277.93-34.7L277.93-34.7 277.93-32Q277.93-31.5 277.58-31.18 277.23-30.85 276.73-30.85L276.73-30.85ZM294.42 0.5L294.42 0.5Q291.67 0.5 289.67-0.48 287.67-1.45 286.4-3.13 285.12-4.8 284.5-6.95 283.87-9.1 283.77-11.5L283.77-11.5Q283.72-12.3 283.72-13 283.72-13.7 283.77-14.5L283.77-14.5Q283.87-16.85 284.5-19 285.12-21.15 286.4-22.85 287.67-24.55 289.67-25.53 291.67-26.5 294.42-26.5L294.42-26.5Q297.37-26.5 299.32-25.45 301.27-24.4 302.52-22.85L302.52-22.85 302.52-34.35Q302.52-34.85 302.85-35.18 303.17-35.5 303.67-35.5L303.67-35.5 306.07-35.5Q306.57-35.5 306.9-35.18 307.22-34.85 307.22-34.35L307.22-34.35 307.22-1.15Q307.22-0.65 306.9-0.33 306.57 0 306.07 0L306.07 0 303.82 0Q303.27 0 302.97-0.33 302.67-0.65 302.67-1.15L302.67-1.15 302.67-3.25Q301.42-1.65 299.42-0.58 297.42 0.5 294.42 0.5ZM295.47-3.55L295.47-3.55Q297.97-3.55 299.47-4.7 300.97-5.85 301.72-7.63 302.47-9.4 302.52-11.25L302.52-11.25Q302.57-12.05 302.57-13.18 302.57-14.3 302.52-15.1L302.52-15.1Q302.47-16.85 301.7-18.55 300.92-20.25 299.4-21.35 297.87-22.45 295.47-22.45L295.47-22.45Q292.92-22.45 291.42-21.33 289.92-20.2 289.27-18.38 288.62-16.55 288.52-14.45L288.52-14.45Q288.47-13 288.52-11.55L288.52-11.55Q288.62-9.45 289.27-7.63 289.92-5.8 291.42-4.67 292.92-3.55 295.47-3.55ZM325.07 0.5L325.07 0.5Q319.87 0.5 316.82-2.68 313.77-5.85 313.47-11.35L313.47-11.35Q313.42-12 313.42-13.03 313.42-14.05 313.47-14.7L313.47-14.7Q313.67-18.25 315.12-20.93 316.57-23.6 319.1-25.05 321.62-26.5 325.02-26.5L325.02-26.5Q328.82-26.5 331.4-24.9 333.97-23.3 335.32-20.35 336.67-17.4 336.67-13.45L336.67-13.45 336.67-12.6Q336.67-12.05 336.35-11.75 336.02-11.45 335.52-11.45L335.52-11.45 318.22-11.45Q318.22-11.4 318.22-11.25 318.22-11.1 318.22-11L318.22-11Q318.32-8.95 319.12-7.18 319.92-5.4 321.45-4.3 322.97-3.2 325.02-3.2L325.02-3.2Q326.82-3.2 328.02-3.75 329.22-4.3 329.97-4.98 330.72-5.65 330.97-6.05L330.97-6.05Q331.42-6.65 331.67-6.78 331.92-6.9 332.47-6.9L332.47-6.9 334.92-6.9Q335.37-6.9 335.7-6.63 336.02-6.35 335.97-5.85L335.97-5.85Q335.92-5.1 335.17-4.03 334.42-2.95 333.05-1.9 331.67-0.85 329.65-0.18 327.62 0.5 325.07 0.5ZM318.22-15.05L318.22-14.9 331.92-14.9 331.92-15.05Q331.92-17.3 331.1-19.05 330.27-20.8 328.72-21.83 327.17-22.85 325.02-22.85L325.02-22.85Q322.87-22.85 321.35-21.83 319.82-20.8 319.02-19.05 318.22-17.3 318.22-15.05L318.22-15.05ZM359.37 0L356.72 0Q356.17 0 355.87-0.33 355.57-0.65 355.57-1.15L355.57-1.15 355.57-33.8Q355.57-34.35 355.87-34.68 356.17-35 356.72-35L356.72-35 369.42-35Q373.12-35 375.84-33.8 378.57-32.6 380.07-30.23 381.57-27.85 381.57-24.3L381.57-24.3Q381.57-20.75 380.07-18.4 378.57-16.05 375.84-14.85 373.12-13.65 369.42-13.65L369.42-13.65 360.57-13.65 360.57-1.15Q360.57-0.65 360.24-0.33 359.92 0 359.37 0L359.37 0ZM360.52-30.8L360.52-17.85 369.17-17.85Q372.87-17.85 374.72-19.5 376.57-21.15 376.57-24.3L376.57-24.3Q376.57-27.4 374.77-29.1 372.97-30.8 369.17-30.8L369.17-30.8 360.52-30.8ZM390.61 0L388.16 0Q387.66 0 387.34-0.33 387.01-0.65 387.01-1.15L387.01-1.15 387.01-24.8Q387.01-25.3 387.34-25.65 387.66-26 388.16-26L388.16-26 390.46-26Q390.96-26 391.31-25.65 391.66-25.3 391.66-24.8L391.66-24.8 391.66-22.6Q392.66-24.3 394.41-25.15 396.16-26 398.66-26L398.66-26 400.61-26Q401.11-26 401.44-25.68 401.76-25.35 401.76-24.85L401.76-24.85 401.76-22.8Q401.76-22.3 401.44-22 401.11-21.7 400.61-21.7L400.61-21.7 397.61-21.7Q394.91-21.7 393.36-20.13 391.81-18.55 391.81-15.85L391.81-15.85 391.81-1.15Q391.81-0.65 391.46-0.33 391.11 0 390.61 0L390.61 0ZM416.66 0.5L416.66 0.5Q412.86 0.5 410.31-0.95 407.76-2.4 406.41-4.98 405.06-7.55 404.91-10.85L404.91-10.85Q404.86-11.7 404.86-13.03 404.86-14.35 404.91-15.15L404.91-15.15Q405.06-18.5 406.44-21.05 407.81-23.6 410.36-25.05 412.91-26.5 416.66-26.5L416.66-26.5Q420.41-26.5 422.96-25.05 425.51-23.6 426.89-21.05 428.26-18.5 428.41-15.15L428.41-15.15Q428.46-14.35 428.46-13.03 428.46-11.7 428.41-10.85L428.41-10.85Q428.26-7.55 426.91-4.98 425.56-2.4 423.01-0.95 420.46 0.5 416.66 0.5ZM416.66-3.35L416.66-3.35Q419.76-3.35 421.61-5.33 423.46-7.3 423.61-11.1L423.61-11.1Q423.66-11.85 423.66-13 423.66-14.15 423.61-14.9L423.61-14.9Q423.46-18.7 421.61-20.68 419.76-22.65 416.66-22.65L416.66-22.65Q413.56-22.65 411.69-20.68 409.81-18.7 409.71-14.9L409.71-14.9Q409.66-14.15 409.66-13 409.66-11.85 409.71-11.1L409.71-11.1Q409.81-7.3 411.69-5.33 413.56-3.35 416.66-3.35ZM431.41 9.5L430.46 9.5Q429.96 9.5 429.63 9.18 429.31 8.85 429.31 8.35L429.31 8.35 429.31 6.65Q429.31 6.15 429.63 5.83 429.96 5.5 430.46 5.5L430.46 5.5 431.16 5.5Q432.96 5.5 433.81 4.83 434.66 4.15 434.93 3.03 435.21 1.9 435.21 0.55L435.21 0.55 435.21-24.85Q435.21-25.35 435.53-25.68 435.86-26 436.36-26L436.36-26 438.81-26Q439.31-26 439.63-25.68 439.96-25.35 439.96-24.85L439.96-24.85 439.96 0.6Q439.96 3.25 439.13 5.25 438.31 7.25 436.46 8.38 434.61 9.5 431.41 9.5L431.41 9.5ZM439.16-30.85L435.96-30.85Q435.46-30.85 435.13-31.18 434.81-31.5 434.81-32L434.81-32 434.81-34.7Q434.81-35.2 435.13-35.55 435.46-35.9 435.96-35.9L435.96-35.9 439.16-35.9Q439.66-35.9 440.01-35.55 440.36-35.2 440.36-34.7L440.36-34.7 440.36-32Q440.36-31.5 440.01-31.18 439.66-30.85 439.16-30.85L439.16-30.85ZM457.81 0.5L457.81 0.5Q452.61 0.5 449.56-2.68 446.51-5.85 446.21-11.35L446.21-11.35Q446.16-12 446.16-13.03 446.16-14.05 446.21-14.7L446.21-14.7Q446.41-18.25 447.86-20.93 449.31-23.6 451.83-25.05 454.36-26.5 457.76-26.5L457.76-26.5Q461.56-26.5 464.13-24.9 466.71-23.3 468.06-20.35 469.41-17.4 469.41-13.45L469.41-13.45 469.41-12.6Q469.41-12.05 469.08-11.75 468.76-11.45 468.26-11.45L468.26-11.45 450.96-11.45Q450.96-11.4 450.96-11.25 450.96-11.1 450.96-11L450.96-11Q451.06-8.95 451.86-7.18 452.66-5.4 454.18-4.3 455.71-3.2 457.76-3.2L457.76-3.2Q459.56-3.2 460.76-3.75 461.96-4.3 462.71-4.98 463.46-5.65 463.71-6.05L463.71-6.05Q464.16-6.65 464.41-6.78 464.66-6.9 465.21-6.9L465.21-6.9 467.66-6.9Q468.11-6.9 468.43-6.63 468.76-6.35 468.71-5.85L468.71-5.85Q468.66-5.1 467.91-4.03 467.16-2.95 465.78-1.9 464.41-0.85 462.38-0.18 460.36 0.5 457.81 0.5ZM450.96-15.05L450.96-14.9 464.66-14.9 464.66-15.05Q464.66-17.3 463.83-19.05 463.01-20.8 461.46-21.83 459.91-22.85 457.76-22.85L457.76-22.85Q455.61-22.85 454.08-21.83 452.56-20.8 451.76-19.05 450.96-17.3 450.96-15.05L450.96-15.05ZM485.9 0.5L485.9 0.5Q482.35 0.5 479.78-0.88 477.2-2.25 475.8-4.83 474.4-7.4 474.3-11L474.3-11Q474.25-11.75 474.25-13 474.25-14.25 474.3-15L474.3-15Q474.4-18.6 475.8-21.18 477.2-23.75 479.78-25.13 482.35-26.5 485.9-26.5L485.9-26.5Q488.8-26.5 490.88-25.7 492.95-24.9 494.3-23.65 495.65-22.4 496.33-20.95 497-19.5 497.05-18.2L497.05-18.2Q497.1-17.7 496.75-17.4 496.4-17.1 495.9-17.1L495.9-17.1 493.5-17.1Q493-17.1 492.75-17.32 492.5-17.55 492.25-18.1L492.25-18.1Q491.35-20.55 489.8-21.55 488.25-22.55 485.95-22.55L485.95-22.55Q482.95-22.55 481.08-20.7 479.2-18.85 479.05-14.75L479.05-14.75Q479-12.95 479.05-11.25L479.05-11.25Q479.2-7.1 481.08-5.28 482.95-3.45 485.95-3.45L485.95-3.45Q488.25-3.45 489.8-4.45 491.35-5.45 492.25-7.9L492.25-7.9Q492.5-8.45 492.75-8.7 493-8.95 493.5-8.95L493.5-8.95 495.9-8.95Q496.4-8.95 496.75-8.63 497.1-8.3 497.05-7.8L497.05-7.8Q497-6.75 496.6-5.65 496.2-4.55 495.33-3.43 494.45-2.3 493.15-1.43 491.85-0.55 490.05-0.03 488.25 0.5 485.9 0.5ZM516.6 0L513.15 0Q510.35 0 508.6-1.07 506.85-2.15 506.05-4.13 505.25-6.1 505.25-8.8L505.25-8.8 505.25-22 501.35-22Q500.85-22 500.53-22.33 500.2-22.65 500.2-23.15L500.2-23.15 500.2-24.85Q500.2-25.35 500.53-25.68 500.85-26 501.35-26L501.35-26 505.25-26 505.25-34.35Q505.25-34.85 505.58-35.18 505.9-35.5 506.4-35.5L506.4-35.5 508.75-35.5Q509.25-35.5 509.58-35.18 509.9-34.85 509.9-34.35L509.9-34.35 509.9-26 516.1-26Q516.65-26 516.95-25.68 517.25-25.35 517.25-24.85L517.25-24.85 517.25-23.15Q517.25-22.65 516.95-22.33 516.65-22 516.1-22L516.1-22 509.9-22 509.9-9.15Q509.9-6.8 510.7-5.45 511.5-4.1 513.55-4.1L513.55-4.1 516.6-4.1Q517.1-4.1 517.43-3.78 517.75-3.45 517.75-2.95L517.75-2.95 517.75-1.15Q517.75-0.65 517.43-0.33 517.1 0 516.6 0L516.6 0Z" opacity="1" transform="matrix(1,0,0,1,0,0)" fill="#755bb4" class="undefined-text-1" data-fill-palette-color="secondary" id="text-1"></path></svg></g></svg></g></svg></g></svg></g><g><svg viewBox="0 0 66.134352612353 119.47453161143672" height="119.47453161143672" width="66.134352612353"><g><svg xmlns="http://www.w3.org/2000/svg" xmlns:xlink="http://www.w3.org/1999/xlink" version="1.1" x="0" y="0" viewBox="21.674000000000003 2 45.333 81.896" enable-background="new 0 0 90 90" xml:space="preserve" height="119.47453161143672" width="66.134352612353" class="icon-icon-0" data-fill-palette-color="accent" id="icon-0"><g fill="#755bb4" data-fill-palette-color="accent"><g fill="#755bb4" data-fill-palette-color="accent"><path d="M62.448 47.599c-2.634-3.491-6.287-6.193-10.383-7.679V25.988h0.186c2.25 0 4.083-1.833 4.083-4.095 0-2.25-1.833-4.095-4.083-4.095H36.429c-2.25 0-4.083 1.844-4.083 4.095 0 2.262 1.833 4.095 4.083 4.095h0.186V39.92c-4.095 1.485-7.749 4.188-10.382 7.679-2.981 3.956-4.559 8.665-4.559 13.631 0 12.505 10.173 22.666 22.667 22.666 12.505 0 22.666-10.161 22.666-22.666C67.006 56.264 65.429 51.555 62.448 47.599zM36.429 24.353c-1.357 0-2.459-1.102-2.459-2.459 0-1.357 1.102-2.459 2.459-2.459h15.822c1.357 0 2.46 1.102 2.46 2.459 0 1.357-1.103 2.459-2.46 2.459H36.429zM44.34 82.271c-11.623 0-21.042-9.42-21.042-21.042 0-9.501 6.298-17.528 14.952-20.138V25.988h12.18v15.104c8.653 2.609 14.953 10.637 14.953 20.138C65.383 72.852 55.964 82.271 44.34 82.271z" fill="#755bb4" data-fill-palette-color="accent"></path><path d="M30.338 53.899c-0.171 0-0.343-0.033-0.51-0.106-0.665-0.28-0.973-1.046-0.692-1.709 1.829-4.298 5.67-7.317 10.274-8.073 0.71-0.116 1.382 0.364 1.5 1.076 0.116 0.712-0.367 1.383-1.077 1.499-3.717 0.61-6.819 3.047-8.295 6.519C31.327 53.601 30.846 53.899 30.338 53.899z" fill="#755bb4" data-fill-palette-color="accent"></path><path d="M55.623 6.231c-0.616 0-1.09-0.204-1.425-0.608-0.333-0.403-0.447-0.917-0.336-1.53C54.107 2.699 54.943 2 56.368 2c0.584 0 1.042 0.202 1.377 0.609 0.333 0.404 0.446 0.898 0.345 1.483C57.839 5.518 57.016 6.231 55.623 6.231L55.623 6.231z" fill="#755bb4" data-fill-palette-color="accent"></path><path d="M48.099 13.466c-1.054 0-1.867-0.349-2.437-1.041-0.571-0.692-0.763-1.567-0.577-2.619 0.421-2.383 1.852-3.575 4.289-3.575 0.996 0 1.781 0.347 2.352 1.039 0.571 0.693 0.771 1.54 0.594 2.536C51.889 12.244 50.479 13.466 48.099 13.466L48.099 13.466z" fill="#755bb4" data-fill-palette-color="accent"></path><path d="M56.902 67.725c-0.371 0.313-0.603 0.755-0.603 1.253 0 0.975 0.928 1.764 2.064 1.764h1.102c-3.097 5.116-8.711 8.537-15.126 8.537-9.755 0-17.667-7.91-17.667-17.678 0-9.756 9.617-1.949 16.797-6.183 7.32-4.327 15.962-3.828 18.062 2.829h-3.167c-0.567 0-1.09 0.197-1.462 0.512-0.371 0.325-0.603 0.766-0.603 1.264 0 0.975 0.928 1.764 2.064 1.764h3.643c-0.012 1.891-0.325 3.711-0.904 5.417h-2.738C57.797 67.203 57.274 67.4 56.902 67.725z" fill="#755bb4" data-fill-palette-color="accent"></path></g></g></svg><g></g></g></svg></g></svg></g><defs></defs></svg><rect width="395.52" height="99.64189876003509" fill="none" stroke="none" visibility="hidden"></rect></g></svg></g></svg>